# Blender 3.6.21
# www.blender.org
mtllib number_7.mtl
o 7
v 0.094000 0.060000 -0.029000
v 0.344000 0.060000 -0.589000
v 0.049000 0.060000 -0.589000
v 0.049000 0.060000 -0.682000
v 0.490000 0.060000 -0.682000
v 0.181000 0.060000 0.009000
v 0.094000 -0.060000 -0.029000
v 0.344000 -0.060000 -0.589000
v 0.049000 -0.060000 -0.589000
v 0.049000 -0.060000 -0.682000
v 0.490000 -0.060000 -0.682000
v 0.181000 -0.060000 0.009000
v 0.094000 -0.060000 -0.029000
v 0.087380 -0.058660 -0.026436
v 0.082533 -0.055000 -0.024558
v 0.080759 -0.050000 -0.023871
v 0.080759 0.050000 -0.023871
v 0.082533 0.055000 -0.024558
v 0.087380 0.058660 -0.026436
v 0.094000 0.060000 -0.029000
v 0.344000 -0.060000 -0.589000
v 0.336292 -0.058660 -0.584000
v 0.330650 -0.055000 -0.580340
v 0.328584 -0.050000 -0.579000
v 0.328584 0.050000 -0.579000
v 0.330650 0.055000 -0.580340
v 0.336292 0.058660 -0.584000
v 0.344000 0.060000 -0.589000
v 0.049000 -0.060000 -0.589000
v 0.044000 -0.058660 -0.584000
v 0.040340 -0.055000 -0.580340
v 0.039000 -0.050000 -0.579000
v 0.039000 0.050000 -0.579000
v 0.040340 0.055000 -0.580340
v 0.044000 0.058660 -0.584000
v 0.049000 0.060000 -0.589000
v 0.049000 -0.060000 -0.682000
v 0.044000 -0.058660 -0.687000
v 0.040340 -0.055000 -0.690660
v 0.039000 -0.050000 -0.692000
v 0.039000 0.050000 -0.692000
v 0.040340 0.055000 -0.690660
v 0.044000 0.058660 -0.687000
v 0.049000 0.060000 -0.682000
v 0.490000 -0.060000 -0.682000
v 0.497713 -0.058660 -0.687000
v 0.503359 -0.055000 -0.690660
v 0.505426 -0.050000 -0.692000
v 0.505426 0.050000 -0.692000
v 0.503359 0.055000 -0.690660
v 0.497713 0.058660 -0.687000
v 0.490000 0.060000 -0.682000
v 0.181000 -0.060000 0.009000
v 0.183541 -0.058660 0.015566
v 0.185401 -0.055000 0.020373
v 0.186082 -0.050000 0.022132
v 0.186082 0.050000 0.022132
v 0.185401 0.055000 0.020373
v 0.183541 0.058660 0.015566
v 0.181000 0.060000 0.009000
vn -0.0000 1.0000 -0.0000
vn -0.0000 -1.0000 -0.0000
vn -0.4385 -0.8825 0.1698
vn -0.1770 -0.9775 0.1148
vn -0.1211 -0.9895 0.0785
vn -0.1729 -0.9827 0.0670
vn -0.7756 -0.5552 0.3004
vn -0.5130 -0.7912 0.3328
vn -0.9193 -0.1677 0.3561
vn -0.8102 -0.2593 0.5256
vn -0.9193 0.1677 0.3561
vn -0.8102 0.2593 0.5256
vn -0.7756 0.5552 0.3004
vn -0.5130 0.7912 0.3328
vn -0.4385 0.8825 0.1698
vn -0.1770 0.9775 0.1148
vn -0.1729 0.9827 0.0670
vn -0.1211 0.9895 0.0785
vn -0.3332 -0.8820 0.3332
vn -0.1316 -0.9825 0.1316
vn -0.5886 -0.5542 0.5886
vn -0.6972 -0.1672 0.6972
vn -0.6972 0.1672 0.6972
vn -0.5886 0.5542 0.5886
vn -0.3332 0.8820 0.3332
vn -0.1316 0.9825 0.1316
vn -0.3332 -0.8820 -0.3332
vn -0.1316 -0.9825 -0.1316
vn -0.5886 -0.5542 -0.5886
vn -0.6972 -0.1672 -0.6972
vn -0.6972 0.1672 -0.6972
vn -0.5886 0.5542 -0.5886
vn -0.3332 0.8820 -0.3332
vn -0.1316 0.9825 -0.1316
vn 0.3403 -0.9141 -0.2206
vn 0.1210 -0.9895 -0.0785
vn 0.6598 -0.6178 -0.4277
vn 0.8215 -0.2039 -0.5325
vn 0.8215 0.2039 -0.5325
vn 0.6598 0.6178 -0.4277
vn 0.3403 0.9141 -0.2206
vn 0.1210 0.9895 -0.0785
vn 0.1704 -0.8815 0.4404
vn 0.0675 -0.9824 0.1743
vn 0.3006 -0.5532 0.7769
vn 0.3559 -0.1667 0.9196
vn 0.3559 0.1667 0.9196
vn 0.3006 0.5532 0.7769
vn 0.1704 0.8815 0.4404
vn 0.0675 0.9824 0.1743
vt 0.400000 0.000000
vt 0.800000 0.000000
vt 0.600000 0.000000
vt 0.200000 0.000000
vt 1.000000 0.000000
vt 0.000000 0.000000
vt 0.000000 0.142857
vt 0.166667 0.142857
vt 0.166667 0.000000
vt 0.000000 0.285714
vt 0.166667 0.285714
vt 0.000000 0.428571
vt 0.166667 0.428571
vt 0.000000 0.571429
vt 0.166667 0.571429
vt 0.000000 0.714286
vt 0.166667 0.714286
vt 0.000000 0.857143
vt 0.166667 0.857143
vt 0.000000 1.000000
vt 0.166667 1.000000
vt 0.333333 0.142857
vt 0.333333 0.000000
vt 0.333333 0.285714
vt 0.333333 0.428571
vt 0.333333 0.571429
vt 0.333333 0.714286
vt 0.333333 0.857143
vt 0.333333 1.000000
vt 0.500000 0.142857
vt 0.500000 0.000000
vt 0.500000 0.285714
vt 0.500000 0.428571
vt 0.500000 0.571429
vt 0.500000 0.714286
vt 0.500000 0.857143
vt 0.500000 1.000000
vt 0.666667 0.142857
vt 0.666667 0.000000
vt 0.666667 0.285714
vt 0.666667 0.428571
vt 0.666667 0.571429
vt 0.666667 0.714286
vt 0.666667 0.857143
vt 0.666667 1.000000
vt 0.833333 0.142857
vt 0.833333 0.000000
vt 0.833333 0.285714
vt 0.833333 0.428571
vt 0.833333 0.571429
vt 0.833333 0.714286
vt 0.833333 0.857143
vt 0.833333 1.000000
vt 1.000000 0.142857
vt 1.000000 0.285714
vt 1.000000 0.428571
vt 1.000000 0.571429
vt 1.000000 0.714286
vt 1.000000 0.857143
vt 1.000000 1.000000
s 0
f 3/1/1 5/2/1 4/3/1
f 3/1/1 2/4/1 5/2/1
f 2/4/1 6/5/1 5/2/1
f 1/6/1 6/5/1 2/4/1
f 9/1/2 10/3/2 11/2/2
f 9/1/2 11/2/2 8/4/2
f 8/4/2 11/2/2 12/5/2
f 7/6/2 8/4/2 12/5/2
s 1
f 14/7/3 22/8/4 21/9/5 13/6/6
f 15/10/7 23/11/8 22/8/4 14/7/3
f 16/12/9 24/13/10 23/11/8 15/10/7
f 17/14/11 25/15/12 24/13/10 16/12/9
f 18/16/13 26/17/14 25/15/12 17/14/11
f 19/18/15 27/19/16 26/17/14 18/16/13
f 20/20/17 28/21/18 27/19/16 19/18/15
f 22/8/4 30/22/19 29/23/20 21/9/5
f 23/11/8 31/24/21 30/22/19 22/8/4
f 24/13/10 32/25/22 31/24/21 23/11/8
f 25/15/12 33/26/23 32/25/22 24/13/10
f 26/17/14 34/27/24 33/26/23 25/15/12
f 27/19/16 35/28/25 34/27/24 26/17/14
f 28/21/18 36/29/26 35/28/25 27/19/16
f 30/22/19 38/30/27 37/31/28 29/23/20
f 31/24/21 39/32/29 38/30/27 30/22/19
f 32/25/22 40/33/30 39/32/29 31/24/21
f 33/26/23 41/34/31 40/33/30 32/25/22
f 34/27/24 42/35/32 41/34/31 33/26/23
f 35/28/25 43/36/33 42/35/32 34/27/24
f 36/29/26 44/37/34 43/36/33 35/28/25
f 38/30/27 46/38/35 45/39/36 37/31/28
f 39/32/29 47/40/37 46/38/35 38/30/27
f 40/33/30 48/41/38 47/40/37 39/32/29
f 41/34/31 49/42/39 48/41/38 40/33/30
f 42/35/32 50/43/40 49/42/39 41/34/31
f 43/36/33 51/44/41 50/43/40 42/35/32
f 44/37/34 52/45/42 51/44/41 43/36/33
f 46/38/35 54/46/43 53/47/44 45/39/36
f 47/40/37 55/48/45 54/46/43 46/38/35
f 48/41/38 56/49/46 55/48/45 47/40/37
f 49/42/39 57/50/47 56/49/46 48/41/38
f 50/43/40 58/51/48 57/50/47 49/42/39
f 51/44/41 59/52/49 58/51/48 50/43/40
f 52/45/42 60/53/50 59/52/49 51/44/41
f 54/46/43 14/54/3 13/5/6 53/47/44
f 55/48/45 15/55/7 14/54/3 54/46/43
f 56/49/46 16/56/9 15/55/7 55/48/45
f 57/50/47 17/57/11 16/56/9 56/49/46
f 58/51/48 18/58/13 17/57/11 57/50/47
f 59/52/49 19/59/15 18/58/13 58/51/48
f 60/53/50 20/60/17 19/59/15 59/52/49
