# Blender 3.6.21
# www.blender.org
mtllib number_11.mtl
o 11
v 0.702000 0.060000 0.000000
v 0.702000 0.060000 -0.682000
v 0.800000 0.060000 -0.682000
v 0.800000 0.060000 0.000000
v 0.202000 0.060000 0.000000
v 0.202000 0.060000 -0.682000
v 0.300000 0.060000 -0.682000
v 0.300000 0.060000 0.000000
v 0.702000 -0.060000 0.000000
v 0.702000 -0.060000 -0.682000
v 0.800000 -0.060000 -0.682000
v 0.800000 -0.060000 0.000000
v 0.202000 -0.060000 0.000000
v 0.202000 -0.060000 -0.682000
v 0.300000 -0.060000 -0.682000
v 0.300000 -0.060000 0.000000
v 0.202000 -0.060000 0.000000
v 0.197000 -0.058660 0.005000
v 0.193340 -0.055000 0.008660
v 0.192000 -0.050000 0.010000
v 0.192000 0.050000 0.010000
v 0.193340 0.055000 0.008660
v 0.197000 0.058660 0.005000
v 0.202000 0.060000 0.000000
v 0.202000 -0.060000 -0.682000
v 0.197000 -0.058660 -0.687000
v 0.193340 -0.055000 -0.690660
v 0.192000 -0.050000 -0.692000
v 0.192000 0.050000 -0.692000
v 0.193340 0.055000 -0.690660
v 0.197000 0.058660 -0.687000
v 0.202000 0.060000 -0.682000
v 0.300000 -0.060000 -0.682000
v 0.305000 -0.058660 -0.687000
v 0.308660 -0.055000 -0.690660
v 0.310000 -0.050000 -0.692000
v 0.310000 0.050000 -0.692000
v 0.308660 0.055000 -0.690660
v 0.305000 0.058660 -0.687000
v 0.300000 0.060000 -0.682000
v 0.300000 -0.060000 0.000000
v 0.305000 -0.058660 0.005000
v 0.308660 -0.055000 0.008660
v 0.310000 -0.050000 0.010000
v 0.310000 0.050000 0.010000
v 0.308660 0.055000 0.008660
v 0.305000 0.058660 0.005000
v 0.300000 0.060000 0.000000
v 0.702000 -0.060000 0.000000
v 0.697000 -0.058660 0.005000
v 0.693340 -0.055000 0.008660
v 0.692000 -0.050000 0.010000
v 0.692000 0.050000 0.010000
v 0.693340 0.055000 0.008660
v 0.697000 0.058660 0.005000
v 0.702000 0.060000 0.000000
v 0.702000 -0.060000 -0.682000
v 0.697000 -0.058660 -0.687000
v 0.693340 -0.055000 -0.690660
v 0.692000 -0.050000 -0.692000
v 0.692000 0.050000 -0.692000
v 0.693340 0.055000 -0.690660
v 0.697000 0.058660 -0.687000
v 0.702000 0.060000 -0.682000
v 0.800000 -0.060000 -0.682000
v 0.805000 -0.058660 -0.687000
v 0.808660 -0.055000 -0.690660
v 0.810000 -0.050000 -0.692000
v 0.810000 0.050000 -0.692000
v 0.808660 0.055000 -0.690660
v 0.805000 0.058660 -0.687000
v 0.800000 0.060000 -0.682000
v 0.800000 -0.060000 0.000000
v 0.805000 -0.058660 0.005000
v 0.808660 -0.055000 0.008660
v 0.810000 -0.050000 0.010000
v 0.810000 0.050000 0.010000
v 0.808660 0.055000 0.008660
v 0.805000 0.058660 0.005000
v 0.800000 0.060000 0.000000
vn -0.0000 1.0000 -0.0000
vn -0.0000 -1.0000 -0.0000
vn -0.3332 -0.8820 0.3332
vn -0.3332 -0.8820 -0.3332
vn -0.1316 -0.9825 -0.1316
vn -0.1316 -0.9825 0.1316
vn -0.5886 -0.5542 0.5886
vn -0.5886 -0.5542 -0.5886
vn -0.6972 -0.1672 0.6972
vn -0.6972 -0.1672 -0.6972
vn -0.6972 0.1672 0.6972
vn -0.6972 0.1672 -0.6972
vn -0.5886 0.5542 0.5886
vn -0.5886 0.5542 -0.5886
vn -0.3332 0.8820 0.3332
vn -0.3332 0.8820 -0.3332
vn -0.1316 0.9825 0.1316
vn -0.1316 0.9825 -0.1316
vn 0.3332 -0.8820 -0.3332
vn 0.1316 -0.9825 -0.1316
vn 0.5886 -0.5542 -0.5886
vn 0.6972 -0.1672 -0.6972
vn 0.6972 0.1672 -0.6972
vn 0.5886 0.5542 -0.5886
vn 0.3332 0.8820 -0.3332
vn 0.1316 0.9825 -0.1316
vn 0.3332 -0.8820 0.3332
vn 0.1316 -0.9825 0.1316
vn 0.5886 -0.5542 0.5886
vn 0.6972 -0.1672 0.6972
vn 0.6972 0.1672 0.6972
vn 0.5886 0.5542 0.5886
vn 0.3332 0.8820 0.3332
vn 0.1316 0.9825 0.1316
vt 0.000000 0.000000
vt 0.666667 0.000000
vt 0.333333 0.000000
vt 1.000000 0.000000
vt 0.000000 0.142857
vt 0.250000 0.142857
vt 0.250000 0.000000
vt 0.000000 0.285714
vt 0.250000 0.285714
vt 0.000000 0.428571
vt 0.250000 0.428571
vt 0.000000 0.571429
vt 0.250000 0.571429
vt 0.000000 0.714286
vt 0.250000 0.714286
vt 0.000000 0.857143
vt 0.250000 0.857143
vt 0.000000 1.000000
vt 0.250000 1.000000
vt 0.500000 0.142857
vt 0.500000 0.000000
vt 0.500000 0.285714
vt 0.500000 0.428571
vt 0.500000 0.571429
vt 0.500000 0.714286
vt 0.500000 0.857143
vt 0.500000 1.000000
vt 0.750000 0.142857
vt 0.750000 0.000000
vt 0.750000 0.285714
vt 0.750000 0.428571
vt 0.750000 0.571429
vt 0.750000 0.714286
vt 0.750000 0.857143
vt 0.750000 1.000000
vt 1.000000 0.142857
vt 1.000000 0.285714
vt 1.000000 0.428571
vt 1.000000 0.571429
vt 1.000000 0.714286
vt 1.000000 0.857143
vt 1.000000 1.000000
s 0
f 1/1/1 3/2/1 2/3/1
f 1/1/1 4/4/1 3/2/1
f 5/1/1 7/2/1 6/3/1
f 5/1/1 8/4/1 7/2/1
f 9/1/2 10/3/2 11/2/2
f 9/1/2 11/2/2 12/4/2
f 13/1/2 14/3/2 15/2/2
f 13/1/2 15/2/2 16/4/2
s 1
f 18/5/3 26/6/4 25/7/5 17/1/6
f 19/8/7 27/9/8 26/6/4 18/5/3
f 20/10/9 28/11/10 27/9/8 19/8/7
f 21/12/11 29/13/12 28/11/10 20/10/9
f 22/14/13 30/15/14 29/13/12 21/12/11
f 23/16/15 31/17/16 30/15/14 22/14/13
f 24/18/17 32/19/18 31/17/16 23/16/15
f 26/6/4 34/20/19 33/21/20 25/7/5
f 27/9/8 35/22/21 34/20/19 26/6/4
f 28/11/10 36/23/22 35/22/21 27/9/8
f 29/13/12 37/24/23 36/23/22 28/11/10
f 30/15/14 38/25/24 37/24/23 29/13/12
f 31/17/16 39/26/25 38/25/24 30/15/14
f 32/19/18 40/27/26 39/26/25 31/17/16
f 34/20/19 42/28/27 41/29/28 33/21/20
f 35/22/21 43/30/29 42/28/27 34/20/19
f 36/23/22 44/31/30 43/30/29 35/22/21
f 37/24/23 45/32/31 44/31/30 36/23/22
f 38/25/24 46/33/32 45/32/31 37/24/23
f 39/26/25 47/34/33 46/33/32 38/25/24
f 40/27/26 48/35/34 47/34/33 39/26/25
f 42/28/27 18/36/3 17/4/6 41/29/28
f 43/30/29 19/37/7 18/36/3 42/28/27
f 44/31/30 20/38/9 19/37/7 43/30/29
f 45/32/31 21/39/11 20/38/9 44/31/30
f 46/33/32 22/40/13 21/39/11 45/32/31
f 47/34/33 23/41/15 22/40/13 46/33/32
f 48/35/34 24/42/17 23/41/15 47/34/33
f 50/5/3 58/6/4 57/7/5 49/1/6
f 51/8/7 59/9/8 58/6/4 50/5/3
f 52/10/9 60/11/10 59/9/8 51/8/7
f 53/12/11 61/13/12 60/11/10 52/10/9
f 54/14/13 62/15/14 61/13/12 53/12/11
f 55/16/15 63/17/16 62/15/14 54/14/13
f 56/18/17 64/19/18 63/17/16 55/16/15
f 58/6/4 66/20/19 65/21/20 57/7/5
f 59/9/8 67/22/21 66/20/19 58/6/4
f 60/11/10 68/23/22 67/22/21 59/9/8
f 61/13/12 69/24/23 68/23/22 60/11/10
f 62/15/14 70/25/24 69/24/23 61/13/12
f 63/17/16 71/26/25 70/25/24 62/15/14
f 64/19/18 72/27/26 71/26/25 63/17/16
f 66/20/19 74/28/27 73/29/28 65/21/20
f 67/22/21 75/30/29 74/28/27 66/20/19
f 68/23/22 76/31/30 75/30/29 67/22/21
f 69/24/23 77/32/31 76/31/30 68/23/22
f 70/25/24 78/33/32 77/32/31 69/24/23
f 71/26/25 79/34/33 78/33/32 70/25/24
f 72/27/26 80/35/34 79/34/33 71/26/25
f 74/28/27 50/36/3 49/4/6 73/29/28
f 75/30/29 51/37/7 50/36/3 74/28/27
f 76/31/30 52/38/9 51/37/7 75/30/29
f 77/32/31 53/39/11 52/38/9 76/31/30
f 78/33/32 54/40/13 53/39/11 77/32/31
f 79/34/33 55/41/15 54/40/13 78/33/32
f 80/35/34 56/42/17 55/41/15 79/34/33
